<svg width="40" height="40" viewBox="0 0 40 40" fill="none" xmlns="http://www.w3.org/2000/svg">
<g clip-path="url(#clip0_0_810)">
<path d="M24.2572 11.5134L28.486 11.5134L28.486 18.3786L21.6197 18.3786L21.6197 16.832L25.4083 13.0399L25.5981 12.8542L24.2572 11.5134Z" fill="#099A71"/>
<path d="M20 8L24.8549 12.8541L20 17.7082L18.9054 16.6138L18.9054 10.9884L17.0111 10.9884L20 8Z" fill="#21244B"/>
<path d="M11.514 11.5134L11.514 15.7416L12.6691 14.5866L12.8549 14.4009L16.8334 18.3786L18.3803 18.3786L18.3803 11.5134L11.514 11.5134Z" fill="#099A71"/>
<path d="M8 19.9979L12.8549 15.1438L17.7099 19.9979L16.6153 21.0923L10.9929 21.0923L10.9929 22.9863L8 19.9979Z" fill="#21244B"/>
<path d="M11.514 28.4827L11.518 21.6174L18.3803 21.6174L18.3803 23.1682L14.5877 26.9562L14.4059 27.1419L14.5877 27.3277L15.7428 28.4827L11.514 28.4827Z" fill="#099A71"/>
<path d="M20 32.0001L15.1451 27.142L20 22.2878L21.0946 23.3822L21.0946 29.0077L22.9929 29.0077L20 32.0001Z" fill="#21244B"/>
<path d="M28.486 28.4827L21.6156 28.4827L21.6197 21.6174L23.1666 21.6174L26.9593 25.4095L27.1451 25.5952L27.3309 25.4095L28.486 24.2545L28.486 28.4827Z" fill="#099A71"/>
<path d="M27.1451 24.852L22.2901 19.9979L23.3847 18.9035L29.0111 18.9035L29.0111 17.0095L32 19.9979L27.1451 24.852Z" fill="#21244B"/>
</g>
<rect x="0.5" y="0.5" width="39" height="39" rx="7.5" stroke="#C5C9D4"/>
<defs>
<clipPath id="clip0_0_810">
<rect width="24" height="24" fill="white" transform="translate(8 8)"/>
</clipPath>
</defs>
</svg>
