<svg width="23" height="24" viewBox="0 0 23 24" fill="none" xmlns="http://www.w3.org/2000/svg">
<path d="M17.5 24H5.5C4.17441 23.9984 2.90356 23.4711 1.96622 22.5338C1.02888 21.5964 0.501588 20.3256 0.5 19V5C0.501588 3.67441 1.02888 2.40356 1.96622 1.46622C2.90356 0.528882 4.17441 0.00158786 5.5 0L17.5 0C18.8256 0.00158786 20.0964 0.528882 21.0338 1.46622C21.9711 2.40356 22.4984 3.67441 22.5 5V19C22.4984 20.3256 21.9711 21.5964 21.0338 22.5338C20.0964 23.4711 18.8256 23.9984 17.5 24ZM5.5 2C4.70435 2 3.94129 2.31607 3.37868 2.87868C2.81607 3.44129 2.5 4.20435 2.5 5V19C2.5 19.7956 2.81607 20.5587 3.37868 21.1213C3.94129 21.6839 4.70435 22 5.5 22H17.5C18.2956 22 19.0587 21.6839 19.6213 21.1213C20.1839 20.5587 20.5 19.7956 20.5 19V5C20.5 4.20435 20.1839 3.44129 19.6213 2.87868C19.0587 2.31607 18.2956 2 17.5 2H5.5ZM15.5 10H7.5C6.70435 10 5.94129 9.68393 5.37868 9.12132C4.81607 8.55871 4.5 7.79565 4.5 7C4.5 6.20435 4.81607 5.44129 5.37868 4.87868C5.94129 4.31607 6.70435 4 7.5 4H15.5C16.2956 4 17.0587 4.31607 17.6213 4.87868C18.1839 5.44129 18.5 6.20435 18.5 7C18.5 7.79565 18.1839 8.55871 17.6213 9.12132C17.0587 9.68393 16.2956 10 15.5 10ZM7.5 6C7.23478 6 6.98043 6.10536 6.79289 6.29289C6.60536 6.48043 6.5 6.73478 6.5 7C6.5 7.26522 6.60536 7.51957 6.79289 7.70711C6.98043 7.89464 7.23478 8 7.5 8H15.5C15.7652 8 16.0196 7.89464 16.2071 7.70711C16.3946 7.51957 16.5 7.26522 16.5 7C16.5 6.73478 16.3946 6.48043 16.2071 6.29289C16.0196 6.10536 15.7652 6 15.5 6H7.5ZM5.5 13C5.30222 13 5.10888 13.0586 4.94443 13.1685C4.77998 13.2784 4.65181 13.4346 4.57612 13.6173C4.50043 13.8 4.48063 14.0011 4.51921 14.1951C4.5578 14.3891 4.65304 14.5673 4.79289 14.7071C4.93275 14.847 5.11093 14.9422 5.30491 14.9808C5.49889 15.0194 5.69996 14.9996 5.88268 14.9239C6.06541 14.8482 6.22159 14.72 6.33147 14.5556C6.44135 14.3911 6.5 14.1978 6.5 14C6.5 13.7348 6.39464 13.4804 6.20711 13.2929C6.01957 13.1054 5.76522 13 5.5 13ZM9.5 13C9.30222 13 9.10888 13.0586 8.94443 13.1685C8.77998 13.2784 8.65181 13.4346 8.57612 13.6173C8.50043 13.8 8.48063 14.0011 8.51921 14.1951C8.5578 14.3891 8.65304 14.5673 8.79289 14.7071C8.93275 14.847 9.11093 14.9422 9.30491 14.9808C9.49889 15.0194 9.69996 14.9996 9.88268 14.9239C10.0654 14.8482 10.2216 14.72 10.3315 14.5556C10.4414 14.3911 10.5 14.1978 10.5 14C10.5 13.7348 10.3946 13.4804 10.2071 13.2929C10.0196 13.1054 9.76522 13 9.5 13ZM13.5 13C13.3022 13 13.1089 13.0586 12.9444 13.1685C12.78 13.2784 12.6518 13.4346 12.5761 13.6173C12.5004 13.8 12.4806 14.0011 12.5192 14.1951C12.5578 14.3891 12.653 14.5673 12.7929 14.7071C12.9327 14.847 13.1109 14.9422 13.3049 14.9808C13.4989 15.0194 13.7 14.9996 13.8827 14.9239C14.0654 14.8482 14.2216 14.72 14.3315 14.5556C14.4414 14.3911 14.5 14.1978 14.5 14C14.5 13.7348 14.3946 13.4804 14.2071 13.2929C14.0196 13.1054 13.7652 13 13.5 13ZM5.5 17C5.30222 17 5.10888 17.0586 4.94443 17.1685C4.77998 17.2784 4.65181 17.4346 4.57612 17.6173C4.50043 17.8 4.48063 18.0011 4.51921 18.1951C4.5578 18.3891 4.65304 18.5673 4.79289 18.7071C4.93275 18.847 5.11093 18.9422 5.30491 18.9808C5.49889 19.0194 5.69996 18.9996 5.88268 18.9239C6.06541 18.8482 6.22159 18.72 6.33147 18.5556C6.44135 18.3911 6.5 18.1978 6.5 18C6.5 17.7348 6.39464 17.4804 6.20711 17.2929C6.01957 17.1054 5.76522 17 5.5 17ZM9.5 17C9.30222 17 9.10888 17.0586 8.94443 17.1685C8.77998 17.2784 8.65181 17.4346 8.57612 17.6173C8.50043 17.8 8.48063 18.0011 8.51921 18.1951C8.5578 18.3891 8.65304 18.5673 8.79289 18.7071C8.93275 18.847 9.11093 18.9422 9.30491 18.9808C9.49889 19.0194 9.69996 18.9996 9.88268 18.9239C10.0654 18.8482 10.2216 18.72 10.3315 18.5556C10.4414 18.3911 10.5 18.1978 10.5 18C10.5 17.7348 10.3946 17.4804 10.2071 17.2929C10.0196 17.1054 9.76522 17 9.5 17ZM17.5 13C17.3022 13 17.1089 13.0586 16.9444 13.1685C16.78 13.2784 16.6518 13.4346 16.5761 13.6173C16.5004 13.8 16.4806 14.0011 16.5192 14.1951C16.5578 14.3891 16.653 14.5673 16.7929 14.7071C16.9327 14.847 17.1109 14.9422 17.3049 14.9808C17.4989 15.0194 17.7 14.9996 17.8827 14.9239C18.0654 14.8482 18.2216 14.72 18.3315 14.5556C18.4414 14.3911 18.5 14.1978 18.5 14C18.5 13.7348 18.3946 13.4804 18.2071 13.2929C18.0196 13.1054 17.7652 13 17.5 13ZM18.5 18C18.5 17.7348 18.3946 17.4804 18.2071 17.2929C18.0196 17.1054 17.7652 17 17.5 17H13.5C13.2348 17 12.9804 17.1054 12.7929 17.2929C12.6054 17.4804 12.5 17.7348 12.5 18C12.5 18.2652 12.6054 18.5196 12.7929 18.7071C12.9804 18.8946 13.2348 19 13.5 19H17.5C17.7652 19 18.0196 18.8946 18.2071 18.7071C18.3946 18.5196 18.5 18.2652 18.5 18Z" fill="white"/>
</svg>
