<svg width="23" height="22" viewBox="0 0 23 22" fill="none" xmlns="http://www.w3.org/2000/svg">
<path d="M7.5 10H3.5C2.70435 10 1.94129 9.68393 1.37868 9.12132C0.81607 8.55871 0.5 7.79565 0.5 7V3C0.5 2.20435 0.81607 1.44129 1.37868 0.87868C1.94129 0.31607 2.70435 0 3.5 0H7.5C8.29565 0 9.05871 0.31607 9.62132 0.87868C10.1839 1.44129 10.5 2.20435 10.5 3V7C10.5 7.79565 10.1839 8.55871 9.62132 9.12132C9.05871 9.68393 8.29565 10 7.5 10ZM3.5 2C3.23478 2 2.98043 2.10536 2.79289 2.29289C2.60536 2.48043 2.5 2.73478 2.5 3V7C2.5 7.26522 2.60536 7.51957 2.79289 7.70711C2.98043 7.89464 3.23478 8 3.5 8H7.5C7.76522 8 8.01957 7.89464 8.20711 7.70711C8.39464 7.51957 8.5 7.26522 8.5 7V3C8.5 2.73478 8.39464 2.48043 8.20711 2.29289C8.01957 2.10536 7.76522 2 7.5 2H3.5ZM19.5 10H15.5C14.7044 10 13.9413 9.68393 13.3787 9.12132C12.8161 8.55871 12.5 7.79565 12.5 7V3C12.5 2.20435 12.8161 1.44129 13.3787 0.87868C13.9413 0.31607 14.7044 0 15.5 0H19.5C20.2956 0 21.0587 0.31607 21.6213 0.87868C22.1839 1.44129 22.5 2.20435 22.5 3V7C22.5 7.79565 22.1839 8.55871 21.6213 9.12132C21.0587 9.68393 20.2956 10 19.5 10ZM15.5 2C15.2348 2 14.9804 2.10536 14.7929 2.29289C14.6054 2.48043 14.5 2.73478 14.5 3V7C14.5 7.26522 14.6054 7.51957 14.7929 7.70711C14.9804 7.89464 15.2348 8 15.5 8H19.5C19.7652 8 20.0196 7.89464 20.2071 7.70711C20.3946 7.51957 20.5 7.26522 20.5 7V3C20.5 2.73478 20.3946 2.48043 20.2071 2.29289C20.0196 2.10536 19.7652 2 19.5 2H15.5ZM7.5 22H3.5C2.70435 22 1.94129 21.6839 1.37868 21.1213C0.81607 20.5587 0.5 19.7956 0.5 19V15C0.5 14.2044 0.81607 13.4413 1.37868 12.8787C1.94129 12.3161 2.70435 12 3.5 12H7.5C8.29565 12 9.05871 12.3161 9.62132 12.8787C10.1839 13.4413 10.5 14.2044 10.5 15V19C10.5 19.7956 10.1839 20.5587 9.62132 21.1213C9.05871 21.6839 8.29565 22 7.5 22ZM3.5 14C3.23478 14 2.98043 14.1054 2.79289 14.2929C2.60536 14.4804 2.5 14.7348 2.5 15V19C2.5 19.2652 2.60536 19.5196 2.79289 19.7071C2.98043 19.8946 3.23478 20 3.5 20H7.5C7.76522 20 8.01957 19.8946 8.20711 19.7071C8.39464 19.5196 8.5 19.2652 8.5 19V15C8.5 14.7348 8.39464 14.4804 8.20711 14.2929C8.01957 14.1054 7.76522 14 7.5 14H3.5ZM19.5 22H15.5C14.7044 22 13.9413 21.6839 13.3787 21.1213C12.8161 20.5587 12.5 19.7956 12.5 19V15C12.5 14.2044 12.8161 13.4413 13.3787 12.8787C13.9413 12.3161 14.7044 12 15.5 12H19.5C20.2956 12 21.0587 12.3161 21.6213 12.8787C22.1839 13.4413 22.5 14.2044 22.5 15V19C22.5 19.7956 22.1839 20.5587 21.6213 21.1213C21.0587 21.6839 20.2956 22 19.5 22ZM15.5 14C15.2348 14 14.9804 14.1054 14.7929 14.2929C14.6054 14.4804 14.5 14.7348 14.5 15V19C14.5 19.2652 14.6054 19.5196 14.7929 19.7071C14.9804 19.8946 15.2348 20 15.5 20H19.5C19.7652 20 20.0196 19.8946 20.2071 19.7071C20.3946 19.5196 20.5 19.2652 20.5 19V15C20.5 14.7348 20.3946 14.4804 20.2071 14.2929C20.0196 14.1054 19.7652 14 19.5 14H15.5Z" fill="white"/>
</svg>
